<svg width="36" height="40" viewBox="0 0 36 40" fill="none" xmlns="http://www.w3.org/2000/svg">
<path d="M31.8868 23.1022V16.0443C31.8868 9.71257 27.5863 4.37877 21.7604 2.77469C21.1838 1.32217 19.7745 0.298706 18.1094 0.298706C16.4443 0.298706 15.0351 1.32217 14.4584 2.77469C8.63258 4.38074 4.33208 9.71257 4.33208 16.0443V23.1022L0.972374 26.4619C0.789248 26.6444 0.644019 26.8612 0.545048 27.1001C0.446077 27.3389 0.395318 27.5949 0.395693 27.8534V31.7898C0.395693 32.3118 0.603056 32.8124 0.972163 33.1815C1.34127 33.5506 1.84189 33.758 2.36389 33.758H33.855C34.377 33.758 34.8776 33.5506 35.2467 33.1815C35.6158 32.8124 35.8232 32.3118 35.8232 31.7898V27.8534C35.8235 27.5949 35.7728 27.3389 35.6738 27.1001C35.5748 26.8612 35.4296 26.6444 35.2465 26.4619L31.8868 23.1022ZM31.8868 29.8216H4.33208V28.6682L7.69178 25.3085C7.87491 25.1261 8.02014 24.9092 8.11911 24.6704C8.21808 24.4316 8.26884 24.1755 8.26847 23.917V16.0443C8.26847 10.6179 12.6831 6.20329 18.1094 6.20329C23.5357 6.20329 27.9504 10.6179 27.9504 16.0443V23.917C27.9504 24.4406 28.1571 24.9405 28.5271 25.3085L31.8868 28.6682V29.8216ZM18.1094 39.6626C19.3283 39.6641 20.5174 39.2858 21.5114 38.5804C22.5054 37.8749 23.255 36.8773 23.6558 35.7262H12.5631C12.9639 36.8773 13.7134 37.8749 14.7074 38.5804C15.7014 39.2858 16.8905 39.6641 18.1094 39.6626Z" fill="white"/>
</svg>
