<svg width="38" height="38" viewBox="0 0 38 38" fill="none" xmlns="http://www.w3.org/2000/svg">
<path d="M32.3517 6.07404C29.2867 3.07747 25.2414 1.2135 20.9132 0.803482C16.585 0.393468 12.2451 1.4631 8.64182 3.82798C5.03851 6.19286 2.39754 9.70478 1.17424 13.7583C-0.0490662 17.8118 0.221949 22.1528 1.94056 26.0331C2.11969 26.3937 2.17846 26.7997 2.10868 27.1943L0.464836 34.8695C0.401504 35.1637 0.414436 35.4687 0.502472 35.7569C0.590508 36.0451 0.750888 36.3075 0.969198 36.5206C1.14816 36.6932 1.36124 36.8288 1.5956 36.9192C1.82996 37.0096 2.08075 37.053 2.33284 37.0468H2.70644L10.7015 35.4864C11.1079 35.4389 11.5199 35.4952 11.897 35.6497C15.8918 37.319 20.3609 37.5823 24.5341 36.394C28.7072 35.2058 32.3228 32.6405 34.7575 29.1405C37.1921 25.6405 38.2933 21.4251 37.8712 17.2209C37.4491 13.0168 35.5301 9.08746 32.4451 6.11033L32.3517 6.07404ZM11.6729 20.7167C11.3034 20.7167 10.9423 20.6103 10.6351 20.4109C10.3279 20.2115 10.0884 19.9282 9.94706 19.5966C9.80568 19.2651 9.76869 18.9002 9.84076 18.5483C9.91284 18.1963 10.0908 17.873 10.352 17.6192C10.6132 17.3655 10.9461 17.1927 11.3084 17.1227C11.6708 17.0526 12.0464 17.0886 12.3877 17.2259C12.7291 17.3632 13.0208 17.5958 13.2261 17.8942C13.4313 18.1926 13.5409 18.5434 13.5409 18.9022C13.5409 19.3835 13.3441 19.845 12.9938 20.1853C12.6434 20.5255 12.1683 20.7167 11.6729 20.7167ZM19.1449 20.7167C18.7754 20.7167 18.4143 20.6103 18.1071 20.4109C17.7999 20.2115 17.5605 19.9282 17.4191 19.5966C17.2777 19.2651 17.2407 18.9002 17.3128 18.5483C17.3849 18.1963 17.5628 17.873 17.824 17.6192C18.0853 17.3655 18.4181 17.1927 18.7805 17.1227C19.1428 17.0526 19.5184 17.0886 19.8598 17.2259C20.2011 17.3632 20.4928 17.5958 20.6981 17.8942C20.9034 18.1926 21.0129 18.5434 21.0129 18.9022C21.0129 19.3835 20.8161 19.845 20.4658 20.1853C20.1155 20.5255 19.6403 20.7167 19.1449 20.7167ZM26.6169 20.7167C26.2475 20.7167 25.8863 20.6103 25.5791 20.4109C25.2719 20.2115 25.0325 19.9282 24.8911 19.5966C24.7497 19.2651 24.7127 18.9002 24.7848 18.5483C24.8569 18.1963 25.0348 17.873 25.2961 17.6192C25.5573 17.3655 25.8901 17.1927 26.2525 17.1227C26.6149 17.0526 26.9904 17.0886 27.3318 17.2259C27.6731 17.3632 27.9649 17.5958 28.1701 17.8942C28.3754 18.1926 28.4849 18.5434 28.4849 18.9022C28.4849 19.3835 28.2881 19.845 27.9378 20.1853C27.5875 20.5255 27.1124 20.7167 26.6169 20.7167Z" fill="white"/>
</svg>
