<svg width="39" height="39" viewBox="0 0 39 39" fill="none" xmlns="http://www.w3.org/2000/svg">
<path fill-rule="evenodd" clip-rule="evenodd" d="M15.9035 0.384325C16.7386 0.133786 17.6208 0.0819575 18.4796 0.232978C19.3384 0.383998 20.1499 0.733685 20.8495 1.25413C21.5491 1.77457 22.1174 2.45135 22.5089 3.23044C22.9004 4.00954 23.1044 4.86938 23.1046 5.74133V33.0093C23.1044 33.8812 22.9004 34.7411 22.5089 35.5202C22.1174 36.2993 21.5491 36.9761 20.8495 37.4965C20.1499 38.0169 19.3384 38.3666 18.4796 38.5177C17.6208 38.6687 16.7386 38.6168 15.9035 38.3663L4.71583 35.01C3.56369 34.6644 2.55366 33.9566 1.83554 32.9916C1.11743 32.0266 0.729506 30.8559 0.729309 29.653V9.09762C0.729506 7.89476 1.11743 6.724 1.83554 5.75902C2.55366 4.79403 3.56369 4.08623 4.71583 3.74061L15.9035 0.384325ZM24.9692 4.45848C24.9692 3.96396 25.1656 3.48969 25.5153 3.14001C25.865 2.79033 26.3392 2.59388 26.8338 2.59388H32.4276C33.9111 2.59388 35.334 3.18323 36.383 4.23227C37.432 5.28131 38.0214 6.70412 38.0214 8.18769V10.0523C38.0214 10.5468 37.8249 11.0211 37.4753 11.3708C37.1256 11.7205 36.6513 11.9169 36.1568 11.9169C35.6623 11.9169 35.188 11.7205 34.8383 11.3708C34.4886 11.0211 34.2922 10.5468 34.2922 10.0523V8.18769C34.2922 7.69317 34.0957 7.2189 33.746 6.86922C33.3964 6.51954 32.9221 6.32309 32.4276 6.32309H26.8338C26.3392 6.32309 25.865 6.12664 25.5153 5.77696C25.1656 5.42728 24.9692 4.95301 24.9692 4.45848ZM36.1568 26.8337C36.6513 26.8337 37.1256 27.0302 37.4753 27.3799C37.8249 27.7295 38.0214 28.2038 38.0214 28.6983V30.5629C38.0214 32.0465 37.432 33.4693 36.383 34.5184C35.334 35.5674 33.9111 36.1567 32.4276 36.1567H26.8338C26.3392 36.1567 25.865 35.9603 25.5153 35.6106C25.1656 35.2609 24.9692 34.7867 24.9692 34.2921C24.9692 33.7976 25.1656 33.3233 25.5153 32.9737C25.865 32.624 26.3392 32.4275 26.8338 32.4275H32.4276C32.9221 32.4275 33.3964 32.2311 33.746 31.8814C34.0957 31.5317 34.2922 31.0575 34.2922 30.5629V28.6983C34.2922 28.2038 34.4886 27.7295 34.8383 27.3799C35.188 27.0302 35.6623 26.8337 36.1568 26.8337ZM13.7815 17.5107C13.287 17.5107 12.8127 17.7072 12.4631 18.0568C12.1134 18.4065 11.9169 18.8808 11.9169 19.3753C11.9169 19.8698 12.1134 20.3441 12.4631 20.6938C12.8127 21.0435 13.287 21.2399 13.7815 21.2399H13.7834C14.2779 21.2399 14.7522 21.0435 15.1019 20.6938C15.4516 20.3441 15.648 19.8698 15.648 19.3753C15.648 18.8808 15.4516 18.4065 15.1019 18.0568C14.7522 17.7072 14.2779 17.5107 13.7834 17.5107H13.7815Z" fill="white"/>
</svg>
