<svg width="268" height="34" viewBox="0 0 268 34" fill="none" xmlns="http://www.w3.org/2000/svg">
<path d="M16.5357 22.8071C13.3125 22.8071 10.6996 20.1942 10.6996 16.971C10.6996 13.7478 13.3125 11.1348 16.5357 11.1348C19.7589 11.1348 22.3719 13.7478 22.3719 16.971C22.3719 20.1942 19.7589 22.8071 16.5357 22.8071Z" fill="#AE9AFF"/>
<path d="M31.0132 18.4227C31.0877 17.8389 31.126 17.2442 31.126 16.6407C31.126 8.76508 24.5938 2.38062 16.5357 2.38062C8.47769 2.38062 1.94537 8.76508 1.94537 16.6407C1.94537 17.4152 2.00855 18.1753 2.13015 18.9163C2.80031 18.0197 3.84626 17.3796 4.97604 17.1849C6.19841 16.9742 7.30935 17.264 8.24866 17.8056C8.19317 17.4251 8.16445 17.0362 8.16445 16.6407C8.16445 12.1221 11.9124 8.45893 16.5357 8.45893C21.159 8.45893 24.907 12.1221 24.907 16.6407C24.907 16.9386 24.8906 17.2329 24.8589 17.5225C25.7784 16.949 26.8785 16.6213 28.1079 16.7902C29.2436 16.9463 30.3114 17.5499 31.0132 18.4227Z" fill="#5429FF"/>
<path d="M49.1491 22.9709L45.8138 10.945H47.7222L50.0652 20.2581H50.1767L52.6136 10.945H54.5044L56.9413 20.2639H57.0529L59.39 10.945H61.3043L57.9631 22.9709H56.1369L53.606 13.9632H53.5121L50.9812 22.9709H49.1491ZM65.9823 23.153C65.0937 23.153 64.3283 22.9631 63.6863 22.5834C63.0482 22.1998 62.555 21.6615 62.2066 20.9686C61.8621 20.2718 61.6898 19.4555 61.6898 18.5199C61.6898 17.5961 61.8621 16.7818 62.2066 16.0772C62.555 15.3725 63.0404 14.8225 63.6628 14.4271C64.2892 14.0317 65.0212 13.834 65.859 13.834C66.3679 13.834 66.8612 13.9182 67.3388 14.0865C67.8163 14.2549 68.245 14.5191 68.6247 14.8793C69.0045 15.2394 69.3039 15.7072 69.5232 16.2827C69.7424 16.8542 69.852 17.5491 69.852 18.3673V18.9897H62.6822V17.6744H68.1315C68.1315 17.2124 68.0375 16.8033 67.8496 16.4471C67.6617 16.0869 67.3975 15.8031 67.0569 15.5956C66.7202 15.3882 66.3248 15.2844 65.8707 15.2844C65.3775 15.2844 64.9469 15.4058 64.5789 15.6485C64.2148 15.8873 63.933 16.2005 63.7333 16.588C63.5376 16.9717 63.4397 17.3886 63.4397 17.8388V18.8664C63.4397 19.4692 63.5454 19.9821 63.7568 20.4049C63.9721 20.8276 64.2716 21.1506 64.6552 21.3737C65.0389 21.593 65.4871 21.7026 65.9999 21.7026C66.3327 21.7026 66.6361 21.6556 66.9101 21.5617C67.1841 21.4638 67.421 21.3189 67.6206 21.1271C67.8203 20.9353 67.9729 20.6985 68.0786 20.4166L69.7404 20.7161C69.6073 21.2054 69.3685 21.6341 69.024 22.0021C68.6835 22.3661 68.2548 22.6499 67.7381 22.8535C67.2252 23.0532 66.64 23.153 65.9823 23.153ZM76.2579 13.9515V15.3608H71.1609V13.9515H76.2579ZM72.5585 22.9709V12.9062C72.5585 12.3425 72.6818 11.8747 72.9284 11.5028C73.175 11.127 73.5019 10.8471 73.9091 10.6631C74.3162 10.4752 74.7585 10.3813 75.2361 10.3813C75.5885 10.3813 75.8899 10.4106 76.1404 10.4693C76.391 10.5241 76.5769 10.575 76.6983 10.622L76.2872 12.043C76.205 12.0196 76.0993 11.9922 75.9701 11.9608C75.841 11.9256 75.6844 11.908 75.5004 11.908C75.0737 11.908 74.7683 12.0137 74.5843 12.2251C74.4043 12.4365 74.3142 12.7418 74.3142 13.1411V22.9709H72.5585ZM78.2348 22.9709V13.9515H79.9318V15.3842H80.0257C80.1902 14.8988 80.4798 14.5171 80.8948 14.2392C81.3137 13.9573 81.7874 13.8164 82.3158 13.8164C82.4255 13.8164 82.5546 13.8203 82.7034 13.8282C82.8561 13.836 82.9755 13.8458 83.0616 13.8575V15.5369C82.9911 15.5173 82.8659 15.4958 82.6858 15.4723C82.5057 15.4449 82.3256 15.4312 82.1456 15.4312C81.7306 15.4312 81.3607 15.5193 81.0357 15.6955C80.7147 15.8677 80.4603 16.1085 80.2724 16.4177C80.0845 16.7231 79.9905 17.0715 79.9905 17.463V22.9709H78.2348ZM87.2904 23.1706C86.7189 23.1706 86.2021 23.0649 85.7402 22.8535C85.2783 22.6382 84.9122 22.327 84.6421 21.9198C84.3759 21.5127 84.2428 21.0136 84.2428 20.4225C84.2428 19.9136 84.3407 19.4947 84.5364 19.1659C84.7322 18.837 84.9964 18.5767 85.3292 18.3849C85.6619 18.1931 86.0338 18.0482 86.4448 17.9503C86.8559 17.8525 87.2748 17.7781 87.7015 17.7272C88.2417 17.6646 88.6801 17.6137 89.0168 17.5745C89.3535 17.5315 89.5981 17.463 89.7508 17.369C89.9035 17.2751 89.9798 17.1224 89.9798 16.911V16.8699C89.9798 16.3571 89.835 15.9597 89.5453 15.6779C89.2595 15.396 88.8328 15.2551 88.2652 15.2551C87.6741 15.2551 87.2082 15.3862 86.8676 15.6485C86.531 15.9069 86.298 16.1946 86.1689 16.5117L84.5188 16.1359C84.7145 15.5878 85.0003 15.1455 85.3761 14.8088C85.7559 14.4682 86.1923 14.2216 86.6856 14.0689C87.1788 13.9123 87.6975 13.834 88.2417 13.834C88.6018 13.834 88.9835 13.8771 89.3867 13.9632C89.7939 14.0454 90.1736 14.1981 90.5259 14.4212C90.8822 14.6444 91.1738 14.9634 91.4009 15.3784C91.6279 15.7894 91.7414 16.3238 91.7414 16.9814V22.9709H90.0268V21.7378H89.9563C89.8428 21.9649 89.6725 22.188 89.4455 22.4072C89.2184 22.6265 88.9268 22.8085 88.5705 22.9533C88.2143 23.0982 87.7876 23.1706 87.2904 23.1706ZM87.6721 21.7613C88.1575 21.7613 88.5725 21.6654 88.917 21.4736C89.2654 21.2818 89.5296 21.0312 89.7097 20.7219C89.8937 20.4088 89.9857 20.0741 89.9857 19.7178V18.5552C89.9231 18.6178 89.8017 18.6765 89.6216 18.7313C89.4455 18.7822 89.2439 18.8272 89.0168 18.8664C88.7898 18.9016 88.5686 18.9349 88.3533 18.9662C88.138 18.9936 87.9579 19.0171 87.813 19.0367C87.4725 19.0797 87.1612 19.1522 86.8794 19.2539C86.6014 19.3557 86.3783 19.5025 86.21 19.6943C86.0455 19.8822 85.9633 20.1328 85.9633 20.446C85.9633 20.8805 86.1238 21.2093 86.4448 21.4325C86.7658 21.6517 87.1749 21.7613 87.6721 21.7613ZM94.2453 22.9709V13.9515H95.9306V15.4195H96.0422C96.2301 14.9223 96.5374 14.5348 96.9641 14.2568C97.3908 13.975 97.9017 13.834 98.4967 13.834C99.0996 13.834 99.6046 13.975 100.012 14.2568C100.423 14.5387 100.726 14.9262 100.922 15.4195H101.016C101.231 14.938 101.574 14.5543 102.043 14.2686C102.513 13.9789 103.073 13.834 103.723 13.834C104.541 13.834 105.208 14.0904 105.725 14.6033C106.246 15.1161 106.506 15.8892 106.506 16.9227V22.9709H104.75V17.0871C104.75 16.4765 104.584 16.0341 104.251 15.7601C103.919 15.486 103.521 15.349 103.059 15.349C102.488 15.349 102.043 15.5252 101.726 15.8775C101.409 16.2259 101.251 16.6741 101.251 17.2222V22.9709H99.5008V16.9756C99.5008 16.4862 99.3482 16.0928 99.0428 15.7953C98.7375 15.4978 98.3401 15.349 97.8508 15.349C97.518 15.349 97.2107 15.4371 96.9289 15.6133C96.6509 15.7855 96.4258 16.0263 96.2536 16.3355C96.0853 16.6448 96.0011 17.003 96.0011 17.4101V22.9709H94.2453ZM112.912 23.153C112.023 23.153 111.258 22.9631 110.616 22.5834C109.978 22.1998 109.485 21.6615 109.136 20.9686C108.792 20.2718 108.62 19.4555 108.62 18.5199C108.62 17.5961 108.792 16.7818 109.136 16.0772C109.485 15.3725 109.97 14.8225 110.593 14.4271C111.219 14.0317 111.951 13.834 112.789 13.834C113.298 13.834 113.791 13.9182 114.269 14.0865C114.746 14.2549 115.175 14.5191 115.555 14.8793C115.934 15.2394 116.234 15.7072 116.453 16.2827C116.672 16.8542 116.782 17.5491 116.782 18.3673V18.9897H109.612V17.6744H115.061C115.061 17.2124 114.967 16.8033 114.779 16.4471C114.591 16.0869 114.327 15.8031 113.987 15.5956C113.65 15.3882 113.255 15.2844 112.801 15.2844C112.307 15.2844 111.877 15.4058 111.509 15.6485C111.145 15.8873 110.863 16.2005 110.663 16.588C110.467 16.9717 110.369 17.3886 110.369 17.8388V18.8664C110.369 19.4692 110.475 19.9821 110.687 20.4049C110.902 20.8276 111.201 21.1506 111.585 21.3737C111.969 21.593 112.417 21.7026 112.93 21.7026C113.262 21.7026 113.566 21.6556 113.84 21.5617C114.114 21.4638 114.351 21.3189 114.55 21.1271C114.75 20.9353 114.903 20.6985 115.008 20.4166L116.67 20.7161C116.537 21.2054 116.298 21.6341 115.954 22.0021C115.613 22.3661 115.185 22.6499 114.668 22.8535C114.155 23.0532 113.57 23.153 112.912 23.153ZM131.716 14.7442C131.603 14.388 131.45 14.0689 131.258 13.787C131.07 13.5013 130.845 13.2586 130.583 13.0589C130.321 12.8553 130.021 12.7007 129.685 12.595C129.352 12.4893 128.986 12.4365 128.586 12.4365C127.909 12.4365 127.299 12.6107 126.754 12.9591C126.21 13.3075 125.78 13.8184 125.463 14.4917C125.149 15.1611 124.993 15.9812 124.993 16.9521C124.993 17.9268 125.151 18.7509 125.468 19.4242C125.786 20.0976 126.22 20.6084 126.772 20.9568C127.324 21.3052 127.952 21.4794 128.657 21.4794C129.311 21.4794 129.88 21.3463 130.366 21.0801C130.855 20.8139 131.233 20.4381 131.499 19.9527C131.769 19.4634 131.904 18.8879 131.904 18.2263L132.374 18.3144H128.933V16.817H133.66V18.1852C133.66 19.1952 133.445 20.0721 133.014 20.8159C132.587 21.5558 131.996 22.1273 131.241 22.5305C130.489 22.9338 129.628 23.1354 128.657 23.1354C127.569 23.1354 126.613 22.8848 125.791 22.3837C124.973 21.8827 124.335 21.1721 123.877 20.2522C123.419 19.3283 123.19 18.2322 123.19 16.9638C123.19 16.0047 123.323 15.1435 123.589 14.3801C123.856 13.6168 124.229 12.9689 124.711 12.4365C125.196 11.9002 125.766 11.4911 126.42 11.2092C127.077 10.9234 127.796 10.7806 128.575 10.7806C129.225 10.7806 129.829 10.8765 130.389 11.0683C130.953 11.2601 131.454 11.5322 131.892 11.8845C132.335 12.2368 132.701 12.6557 132.991 13.1411C133.28 13.6226 133.476 14.157 133.578 14.7442H131.716ZM137.743 10.945V22.9709H135.988V10.945H137.743ZM144.07 23.153C143.224 23.153 142.487 22.9592 141.856 22.5716C141.226 22.1841 140.737 21.6419 140.388 20.9451C140.04 20.2483 139.866 19.434 139.866 18.5023C139.866 17.5667 140.04 16.7485 140.388 16.0478C140.737 15.3471 141.226 14.8029 141.856 14.4154C142.487 14.0278 143.224 13.834 144.07 13.834C144.916 13.834 145.654 14.0278 146.284 14.4154C146.914 14.8029 147.403 15.3471 147.752 16.0478C148.1 16.7485 148.274 17.5667 148.274 18.5023C148.274 19.434 148.1 20.2483 147.752 20.9451C147.403 21.6419 146.914 22.1841 146.284 22.5716C145.654 22.9592 144.916 23.153 144.07 23.153ZM144.076 21.6791C144.624 21.6791 145.078 21.5343 145.438 21.2446C145.798 20.9549 146.065 20.5693 146.237 20.0878C146.413 19.6063 146.501 19.0758 146.501 18.4964C146.501 17.921 146.413 17.3925 146.237 16.911C146.065 16.4256 145.798 16.036 145.438 15.7424C145.078 15.4488 144.624 15.302 144.076 15.302C143.524 15.302 143.066 15.4488 142.702 15.7424C142.342 16.036 142.074 16.4256 141.897 16.911C141.725 17.3925 141.639 17.921 141.639 18.4964C141.639 19.0758 141.725 19.6063 141.897 20.0878C142.074 20.5693 142.342 20.9549 142.702 21.2446C143.066 21.5343 143.524 21.6791 144.076 21.6791ZM150.541 22.9709V10.945H152.296V15.4136H152.402C152.504 15.2257 152.651 15.0084 152.842 14.7618C153.034 14.5152 153.3 14.2999 153.641 14.1159C153.982 13.928 154.432 13.834 154.992 13.834C155.72 13.834 156.37 14.018 156.941 14.386C157.513 14.754 157.961 15.2844 158.286 15.9773C158.615 16.6702 158.779 17.5041 158.779 18.4788C158.779 19.4536 158.617 20.2894 158.292 20.9862C157.967 21.6791 157.52 22.2135 156.953 22.5893C156.385 22.9612 155.737 23.1471 155.009 23.1471C154.461 23.1471 154.013 23.0551 153.664 22.8711C153.32 22.6871 153.05 22.4718 152.854 22.2252C152.658 21.9786 152.508 21.7593 152.402 21.5675H152.255V22.9709H150.541ZM152.261 18.4612C152.261 19.0954 152.353 19.6513 152.537 20.1289C152.721 20.6065 152.987 20.9803 153.336 21.2504C153.684 21.5166 154.111 21.6497 154.616 21.6497C155.14 21.6497 155.579 21.5108 155.931 21.2328C156.283 20.951 156.55 20.5693 156.73 20.0878C156.914 19.6063 157.006 19.0641 157.006 18.4612C157.006 17.8662 156.916 17.3318 156.736 16.8581C156.559 16.3845 156.293 16.0106 155.937 15.7366C155.585 15.4625 155.144 15.3255 154.616 15.3255C154.107 15.3255 153.676 15.4567 153.324 15.719C152.975 15.9812 152.711 16.3473 152.531 16.817C152.351 17.2868 152.261 17.8349 152.261 18.4612ZM163.541 23.1706C162.969 23.1706 162.452 23.0649 161.991 22.8535C161.529 22.6382 161.163 22.327 160.892 21.9198C160.626 21.5127 160.493 21.0136 160.493 20.4225C160.493 19.9136 160.591 19.4947 160.787 19.1659C160.982 18.837 161.247 18.5767 161.579 18.3849C161.912 18.1931 162.284 18.0482 162.695 17.9503C163.106 17.8525 163.525 17.7781 163.952 17.7272C164.492 17.6646 164.93 17.6137 165.267 17.5745C165.604 17.5315 165.848 17.463 166.001 17.369C166.154 17.2751 166.23 17.1224 166.23 16.911V16.8699C166.23 16.3571 166.085 15.9597 165.796 15.6779C165.51 15.396 165.083 15.2551 164.515 15.2551C163.924 15.2551 163.459 15.3862 163.118 15.6485C162.781 15.9069 162.548 16.1946 162.419 16.5117L160.769 16.1359C160.965 15.5878 161.251 15.1455 161.626 14.8088C162.006 14.4682 162.443 14.2216 162.936 14.0689C163.429 13.9123 163.948 13.834 164.492 13.834C164.852 13.834 165.234 13.8771 165.637 13.9632C166.044 14.0454 166.424 14.1981 166.776 14.4212C167.132 14.6444 167.424 14.9634 167.651 15.3784C167.878 15.7894 167.992 16.3238 167.992 16.9814V22.9709H166.277V21.7378H166.207C166.093 21.9649 165.923 22.188 165.696 22.4072C165.469 22.6265 165.177 22.8085 164.821 22.9533C164.465 23.0982 164.038 23.1706 163.541 23.1706ZM163.922 21.7613C164.408 21.7613 164.823 21.6654 165.167 21.4736C165.516 21.2818 165.78 21.0312 165.96 20.7219C166.144 20.4088 166.236 20.0741 166.236 19.7178V18.5552C166.173 18.6178 166.052 18.6765 165.872 18.7313C165.696 18.7822 165.494 18.8272 165.267 18.8664C165.04 18.9016 164.819 18.9349 164.604 18.9662C164.388 18.9936 164.208 19.0171 164.063 19.0367C163.723 19.0797 163.412 19.1522 163.13 19.2539C162.852 19.3557 162.629 19.5025 162.46 19.6943C162.296 19.8822 162.214 20.1328 162.214 20.446C162.214 20.8805 162.374 21.2093 162.695 21.4325C163.016 21.6517 163.425 21.7613 163.922 21.7613ZM172.251 10.945V22.9709H170.496V10.945H172.251ZM189.45 14.8558H187.618C187.547 14.4643 187.416 14.1198 187.224 13.8223C187.032 13.5248 186.797 13.2723 186.519 13.0648C186.241 12.8573 185.93 12.7007 185.586 12.595C185.245 12.4893 184.883 12.4365 184.499 12.4365C183.807 12.4365 183.186 12.6107 182.638 12.9591C182.094 13.3075 181.663 13.8184 181.346 14.4917C181.033 15.165 180.876 15.9871 180.876 16.958C180.876 17.9366 181.033 18.7626 181.346 19.436C181.663 20.1093 182.096 20.6182 182.644 20.9627C183.192 21.3072 183.809 21.4794 184.494 21.4794C184.873 21.4794 185.233 21.4286 185.574 21.3268C185.919 21.2211 186.23 21.0664 186.508 20.8629C186.786 20.6593 187.021 20.4107 187.212 20.1171C187.408 19.8196 187.543 19.479 187.618 19.0954L189.45 19.1013C189.352 19.6924 189.162 20.2365 188.88 20.7337C188.602 21.2269 188.244 21.6536 187.805 22.0138C187.371 22.37 186.874 22.646 186.314 22.8418C185.754 23.0375 185.143 23.1354 184.482 23.1354C183.441 23.1354 182.513 22.8887 181.698 22.3955C180.884 21.8983 180.242 21.1878 179.772 20.2639C179.307 19.3401 179.074 18.2381 179.074 16.958C179.074 15.6739 179.309 14.5719 179.778 13.652C180.248 12.7281 180.89 12.0196 181.704 11.5263C182.519 11.0291 183.444 10.7806 184.482 10.7806C185.12 10.7806 185.715 10.8726 186.267 11.0565C186.823 11.2366 187.322 11.5028 187.764 11.8551C188.207 12.2036 188.573 12.6303 188.862 13.1353C189.152 13.6363 189.348 14.2098 189.45 14.8558ZM193.401 17.6156V22.9709H191.645V10.945H193.377V15.4195H193.489C193.7 14.9341 194.023 14.5485 194.458 14.2627C194.892 13.9769 195.46 13.834 196.161 13.834C196.779 13.834 197.32 13.9613 197.782 14.2157C198.247 14.4702 198.608 14.8499 198.862 15.3549C199.12 15.856 199.25 16.4823 199.25 17.2339V22.9709H197.494V17.4453C197.494 16.7838 197.323 16.2709 196.983 15.9069C196.642 15.5389 196.169 15.3549 195.562 15.3549C195.147 15.3549 194.775 15.443 194.446 15.6191C194.121 15.7953 193.865 16.0537 193.677 16.3942C193.493 16.7309 193.401 17.138 193.401 17.6156ZM204.383 23.1706C203.811 23.1706 203.294 23.0649 202.832 22.8535C202.37 22.6382 202.004 22.327 201.734 21.9198C201.468 21.5127 201.335 21.0136 201.335 20.4225C201.335 19.9136 201.433 19.4947 201.629 19.1659C201.824 18.837 202.089 18.5767 202.421 18.3849C202.754 18.1931 203.126 18.0482 203.537 17.9503C203.948 17.8525 204.367 17.7781 204.794 17.7272C205.334 17.6646 205.772 17.6137 206.109 17.5745C206.446 17.5315 206.69 17.463 206.843 17.369C206.996 17.2751 207.072 17.1224 207.072 16.911V16.8699C207.072 16.3571 206.927 15.9597 206.638 15.6779C206.352 15.396 205.925 15.2551 205.357 15.2551C204.766 15.2551 204.3 15.3862 203.96 15.6485C203.623 15.9069 203.39 16.1946 203.261 16.5117L201.611 16.1359C201.807 15.5878 202.093 15.1455 202.468 14.8088C202.848 14.4682 203.285 14.2216 203.778 14.0689C204.271 13.9123 204.79 13.834 205.334 13.834C205.694 13.834 206.076 13.8771 206.479 13.9632C206.886 14.0454 207.266 14.1981 207.618 14.4212C207.974 14.6444 208.266 14.9634 208.493 15.3784C208.72 15.7894 208.834 16.3238 208.834 16.9814V22.9709H207.119V21.7378H207.049C206.935 21.9649 206.765 22.188 206.538 22.4072C206.311 22.6265 206.019 22.8085 205.663 22.9533C205.307 23.0982 204.88 23.1706 204.383 23.1706ZM204.764 21.7613C205.25 21.7613 205.665 21.6654 206.009 21.4736C206.358 21.2818 206.622 21.0312 206.802 20.7219C206.986 20.4088 207.078 20.0741 207.078 19.7178V18.5552C207.015 18.6178 206.894 18.6765 206.714 18.7313C206.538 18.7822 206.336 18.8272 206.109 18.8664C205.882 18.9016 205.661 18.9349 205.445 18.9662C205.23 18.9936 205.05 19.0171 204.905 19.0367C204.565 19.0797 204.253 19.1522 203.972 19.2539C203.694 19.3557 203.471 19.5025 203.302 19.6943C203.138 19.8822 203.056 20.1328 203.056 20.446C203.056 20.8805 203.216 21.2093 203.537 21.4325C203.858 21.6517 204.267 21.7613 204.764 21.7613ZM215.548 13.9515V15.3608H210.621V13.9515H215.548ZM211.942 11.7906H213.698V20.3226C213.698 20.6632 213.749 20.9196 213.851 21.0919C213.953 21.2602 214.084 21.3757 214.244 21.4383C214.409 21.4971 214.587 21.5264 214.779 21.5264C214.92 21.5264 215.043 21.5166 215.149 21.4971C215.254 21.4775 215.336 21.4618 215.395 21.4501L215.712 22.9005C215.61 22.9396 215.466 22.9788 215.278 23.0179C215.09 23.061 214.855 23.0845 214.573 23.0884C214.111 23.0962 213.681 23.014 213.281 22.8418C212.882 22.6695 212.559 22.4033 212.312 22.0432C212.066 21.683 211.942 21.2309 211.942 20.6867V11.7906ZM222.338 22.9709V10.945H226.624C227.556 10.945 228.329 11.1055 228.944 11.4265C229.562 11.7475 230.024 12.1918 230.33 12.7594C230.635 13.3232 230.788 13.975 230.788 14.7148C230.788 15.4508 230.633 16.0987 230.324 16.6585C230.018 17.2144 229.557 17.6469 228.938 17.9562C228.323 18.2655 227.55 18.4201 226.619 18.4201H223.371V16.8581H226.454C227.041 16.8581 227.519 16.774 227.887 16.6056C228.259 16.4373 228.531 16.1926 228.703 15.8716C228.875 15.5506 228.961 15.165 228.961 14.7148C228.961 14.2607 228.873 13.8673 228.697 13.5346C228.525 13.2018 228.253 12.9473 227.881 12.7712C227.513 12.5911 227.03 12.5011 226.431 12.5011H224.152V22.9709H222.338ZM228.274 17.5452L231.246 22.9709H229.179L226.266 17.5452H228.274ZM236.706 23.153C235.861 23.153 235.123 22.9592 234.492 22.5716C233.862 22.1841 233.373 21.6419 233.024 20.9451C232.676 20.2483 232.502 19.434 232.502 18.5023C232.502 17.5667 232.676 16.7485 233.024 16.0478C233.373 15.3471 233.862 14.8029 234.492 14.4154C235.123 14.0278 235.861 13.834 236.706 13.834C237.552 13.834 238.29 14.0278 238.92 14.4154C239.55 14.8029 240.04 15.3471 240.388 16.0478C240.736 16.7485 240.911 17.5667 240.911 18.5023C240.911 19.434 240.736 20.2483 240.388 20.9451C240.04 21.6419 239.55 22.1841 238.92 22.5716C238.29 22.9592 237.552 23.153 236.706 23.153ZM236.712 21.6791C237.26 21.6791 237.714 21.5343 238.074 21.2446C238.435 20.9549 238.701 20.5693 238.873 20.0878C239.049 19.6063 239.137 19.0758 239.137 18.4964C239.137 17.921 239.049 17.3925 238.873 16.911C238.701 16.4256 238.435 16.036 238.074 15.7424C237.714 15.4488 237.26 15.302 236.712 15.302C236.16 15.302 235.702 15.4488 235.338 15.7424C234.978 16.036 234.71 16.4256 234.534 16.911C234.361 17.3925 234.275 17.921 234.275 18.4964C234.275 19.0758 234.361 19.6063 234.534 20.0878C234.71 20.5693 234.978 20.9549 235.338 21.2446C235.702 21.5343 236.16 21.6791 236.712 21.6791ZM246.835 23.153C245.989 23.153 245.251 22.9592 244.621 22.5716C243.991 22.1841 243.502 21.6419 243.153 20.9451C242.805 20.2483 242.631 19.434 242.631 18.5023C242.631 17.5667 242.805 16.7485 243.153 16.0478C243.502 15.3471 243.991 14.8029 244.621 14.4154C245.251 14.0278 245.989 13.834 246.835 13.834C247.681 13.834 248.418 14.0278 249.049 14.4154C249.679 14.8029 250.168 15.3471 250.517 16.0478C250.865 16.7485 251.039 17.5667 251.039 18.5023C251.039 19.434 250.865 20.2483 250.517 20.9451C250.168 21.6419 249.679 22.1841 249.049 22.5716C248.418 22.9592 247.681 23.153 246.835 23.153ZM246.841 21.6791C247.389 21.6791 247.843 21.5343 248.203 21.2446C248.563 20.9549 248.83 20.5693 249.002 20.0878C249.178 19.6063 249.266 19.0758 249.266 18.4964C249.266 17.921 249.178 17.3925 249.002 16.911C248.83 16.4256 248.563 16.036 248.203 15.7424C247.843 15.4488 247.389 15.302 246.841 15.302C246.289 15.302 245.831 15.4488 245.467 15.7424C245.107 16.036 244.838 16.4256 244.662 16.911C244.49 17.3925 244.404 17.921 244.404 18.4964C244.404 19.0758 244.49 19.6063 244.662 20.0878C244.838 20.5693 245.107 20.9549 245.467 21.2446C245.831 21.5343 246.289 21.6791 246.841 21.6791ZM253.165 22.9709V13.9515H254.85V15.4195H254.961C255.149 14.9223 255.457 14.5348 255.883 14.2568C256.31 13.975 256.821 13.834 257.416 13.834C258.019 13.834 258.524 13.975 258.931 14.2568C259.342 14.5387 259.645 14.9262 259.841 15.4195H259.935C260.15 14.938 260.493 14.5543 260.963 14.2686C261.432 13.9789 261.992 13.834 262.642 13.834C263.46 13.834 264.128 14.0904 264.644 14.6033C265.165 15.1161 265.425 15.8892 265.425 16.9227V22.9709H263.67V17.0871C263.67 16.4765 263.503 16.0341 263.171 15.7601C262.838 15.486 262.44 15.349 261.978 15.349C261.407 15.349 260.963 15.5252 260.646 15.8775C260.328 16.2259 260.17 16.6741 260.17 17.2222V22.9709H258.42V16.9756C258.42 16.4862 258.267 16.0928 257.962 15.7953C257.657 15.4978 257.259 15.349 256.77 15.349C256.437 15.349 256.13 15.4371 255.848 15.6133C255.57 15.7855 255.345 16.0263 255.173 16.3355C255.004 16.6448 254.92 17.003 254.92 17.4101V22.9709H253.165Z" fill="black"/>
</svg>
