<svg width="35" height="35" viewBox="0 0 35 35" fill="none" xmlns="http://www.w3.org/2000/svg">
<path d="M14.9166 29.25C18.0968 29.2494 21.1853 28.1848 23.6904 26.2257L31.5666 34.1019L34.1 31.5685L26.2239 23.6923C28.1839 21.1869 29.2492 18.0977 29.25 14.9167C29.25 7.01367 22.8197 0.583374 14.9166 0.583374C7.01361 0.583374 0.583313 7.01367 0.583313 14.9167C0.583313 22.8197 7.01361 29.25 14.9166 29.25ZM14.9166 4.16671C20.8453 4.16671 25.6666 8.98808 25.6666 14.9167C25.6666 20.8453 20.8453 25.6667 14.9166 25.6667C8.98802 25.6667 4.16665 20.8453 4.16665 14.9167C4.16665 8.98808 8.98802 4.16671 14.9166 4.16671Z" fill="#7C7C7C"/>
</svg>
